<svg width="79" height="63" viewBox="0 0 79 63" fill="none" xmlns="http://www.w3.org/2000/svg">
<ellipse cx="40" cy="56.0306" rx="35.5" ry="6" fill="#D9D9D9"/>
<rect x="14.75" y="14.0306" width="46.25" height="40" rx="2.5" fill="white" stroke="#00068E" stroke-width="2.5"/>
<line x1="13.5" y1="21.5306" x2="61" y2="21.5306" stroke="#00068E" stroke-width="2.5"/>
<circle cx="19.75" cy="17.7806" r="1.25" fill="#20259C"/>
<circle cx="23.5" cy="17.7806" r="1.25" fill="#00068E"/>
<circle cx="27.25" cy="17.7806" r="1.25" fill="#00068E"/>
<circle cx="59.75" cy="16.5306" r="11.875" fill="white" stroke="#00068E" stroke-width="1.25"/>
<circle cx="59.75" cy="16.5306" r="8.125" stroke="#00068E" stroke-width="1.25" stroke-dasharray="2.5 2.5"/>
<path d="M59.75 10.2806V16.5306L56 19.0306" stroke="#00068E" stroke-width="1.25" stroke-linecap="round" stroke-linejoin="round"/>
<circle cx="59.75" cy="16.5306" r="1.875" fill="white" stroke="#00068E" stroke-width="1.25"/>
<path d="M77.3277 28.4056L70.8325 17.1556C70.3514 16.3223 69.1486 16.3223 68.6675 17.1556L62.1723 28.4056C61.6912 29.2389 62.2926 30.2806 63.2548 30.2806H76.2452C77.2074 30.2806 77.8088 29.2389 77.3277 28.4056Z" fill="white" stroke="#00068E" stroke-width="1.25"/>
<path d="M69.75 20.2806V24.0306" stroke="#00068E" stroke-width="2.5" stroke-linecap="round"/>
<circle cx="69.75" cy="27.7806" r="1.25" fill="#00068E"/>
<path d="M31.0628 43.9681C30.9434 43.8528 30.8481 43.7149 30.7826 43.5624C30.7171 43.4099 30.6826 43.2458 30.6812 43.0799C30.6798 42.9139 30.7114 42.7493 30.7742 42.5957C30.8371 42.442 30.9299 42.3025 31.0473 42.1851C31.1646 42.0677 31.3042 41.9749 31.4578 41.9121C31.6114 41.8492 31.776 41.8176 31.942 41.819C32.108 41.8205 32.272 41.855 32.4245 41.9205C32.577 41.986 32.715 42.0812 32.8303 42.2006C33.7043 43.0749 34.8181 43.6704 36.0306 43.9116C37.2432 44.1529 38.5 44.0291 39.6422 43.556C40.7844 43.0828 41.7606 42.2816 42.4473 41.2535C43.1341 40.2255 43.5005 39.0169 43.5003 37.7806C43.5003 37.4491 43.632 37.1311 43.8664 36.8967C44.1008 36.6623 44.4187 36.5306 44.7503 36.5306C45.0818 36.5306 45.3997 36.6623 45.6341 36.8967C45.8686 37.1311 46.0003 37.4491 46.0003 37.7806C46.0004 39.5113 45.4873 41.2031 44.5258 42.6422C43.5644 44.0812 42.1978 45.2028 40.5988 45.8652C38.9999 46.5275 37.2405 46.7008 35.543 46.3631C33.8456 46.0254 32.2865 45.1919 31.0628 43.9681Z" fill="#00068E"/>
<path d="M41.6988 41.3206C41.5622 41.4117 41.409 41.475 41.248 41.5069C41.087 41.5388 40.9212 41.5387 40.7602 41.5066C40.5992 41.4744 40.4461 41.4109 40.3097 41.3195C40.1733 41.2282 40.0561 41.1109 39.965 40.9744C39.781 40.6985 39.7142 40.3609 39.7791 40.0358C39.844 39.7106 40.0355 39.4246 40.3113 39.2406L44.0613 36.7406C44.1979 36.6495 44.3511 36.5862 44.5121 36.5543C44.6731 36.5224 44.8389 36.5225 44.9999 36.5547C45.1609 36.5868 45.314 36.6504 45.4504 36.7417C45.5868 36.833 45.7039 36.9503 45.795 37.0869C45.8861 37.2234 45.9495 37.3766 45.9814 37.5377C46.0133 37.6987 46.0131 37.8645 45.981 38.0254C45.9488 38.1864 45.8853 38.3395 45.794 38.476C45.7027 38.6124 45.5854 38.7295 45.4488 38.8206L41.6988 41.3206Z" fill="#00068E"/>
<path d="M48.2903 40.8369C48.4743 41.1127 48.5412 41.4503 48.4762 41.7755C48.4113 42.1006 48.2199 42.3866 47.944 42.5706C47.6682 42.7546 47.3306 42.8215 47.0054 42.7566C46.6803 42.6916 46.3943 42.5002 46.2103 42.2244L43.7103 38.4744C43.6192 38.3378 43.5559 38.1846 43.524 38.0236C43.4921 37.8625 43.4922 37.6968 43.5243 37.5358C43.5893 37.2107 43.7807 36.9246 44.0565 36.7406C44.3324 36.5566 44.67 36.4898 44.9951 36.5547C45.3203 36.6196 45.6063 36.8111 45.7903 37.0869L48.2903 40.8369ZM43.3215 31.3444C43.4409 31.4597 43.5361 31.5976 43.6017 31.7501C43.6672 31.9026 43.7017 32.0667 43.7031 32.2326C43.7045 32.3986 43.6729 32.5632 43.6101 32.7168C43.5472 32.8704 43.4544 33.01 43.337 33.1274C43.2197 33.2447 43.0801 33.3376 42.9265 33.4004C42.7729 33.4633 42.6083 33.4949 42.4423 33.4934C42.2763 33.492 42.1123 33.4575 41.9598 33.392C41.8073 33.3265 41.6693 33.2313 41.554 33.1119C40.68 32.2376 39.5662 31.6421 38.3537 31.4009C37.1411 31.1596 35.8843 31.2834 34.7421 31.7565C33.5999 32.2297 32.6237 33.0309 31.937 34.059C31.2502 35.087 30.8838 36.2956 30.884 37.5319C30.884 37.8634 30.7523 38.1813 30.5179 38.4158C30.2835 38.6502 29.9656 38.7819 29.634 38.7819C29.3025 38.7819 28.9846 38.6502 28.7501 38.4158C28.5157 38.1813 28.384 37.8634 28.384 37.5319C28.3839 35.8012 28.897 34.1094 29.8585 32.6703C30.8199 31.2313 32.1865 30.1097 33.7855 29.4473C35.3844 28.785 37.1438 28.6117 38.8412 28.9494C40.5387 29.2871 42.0978 30.1205 43.3215 31.3444Z" fill="#00068E"/>
<path d="M32.6866 33.9919C32.9624 33.8079 33.3 33.741 33.6252 33.8059C33.9503 33.8709 34.2363 34.0623 34.4203 34.3381C34.6043 34.6139 34.6712 34.9516 34.6063 35.2767C34.5413 35.6018 34.3499 35.8879 34.0741 36.0719L30.3228 38.5719C30.1862 38.663 30.0331 38.7263 29.872 38.7582C29.711 38.7901 29.5452 38.79 29.3842 38.7578C29.2232 38.7257 29.0702 38.6621 28.9337 38.5708C28.7973 38.4795 28.6802 38.3622 28.5891 38.2256C28.4051 37.9498 28.3382 37.6122 28.4031 37.287C28.4681 36.9619 28.6595 36.6759 28.9353 36.4919L32.6866 33.9919Z" fill="#00068E"/>
<path d="M26.0939 34.4756C26.0028 34.3391 25.9395 34.1859 25.9076 34.0248C25.8757 33.8638 25.8758 33.6981 25.908 33.5371C25.9402 33.3761 26.0037 33.223 26.095 33.0865C26.1863 32.9501 26.3036 32.833 26.4402 32.7419C26.5768 32.6508 26.73 32.5875 26.891 32.5556C27.052 32.5237 27.2178 32.5238 27.3788 32.5559C27.5398 32.5881 27.6929 32.6516 27.8293 32.743C27.9657 32.8343 28.0828 32.9516 28.1739 33.0881L30.6739 36.8381C30.765 36.9747 30.8284 37.1279 30.8603 37.2889C30.8922 37.45 30.892 37.6157 30.8599 37.7767C30.8277 37.9377 30.7642 38.0908 30.6729 38.2272C30.5816 38.3637 30.4643 38.4808 30.3277 38.5719C30.1911 38.663 30.0379 38.7263 29.8769 38.7582C29.7159 38.7901 29.5501 38.79 29.3891 38.7578C29.2281 38.7257 29.075 38.6621 28.9386 38.5708C28.8022 38.4795 28.685 38.3622 28.5939 38.2256L26.0939 34.4756Z" fill="#00068E"/>
<path d="M7.5 17.0306C7.5 10.5306 12.5 6.03061 19.5 7.03062" stroke="#00068E" stroke-width="2" stroke-linecap="round" stroke-linejoin="round"/>
<path d="M1 17.5306C1.00006 5.53061 10.4999 -0.969391 20.5 1.53062" stroke="#00068E" stroke-width="2" stroke-linecap="round" stroke-linejoin="round"/>
</svg>
